<?xml version="1.0" standalone="no"?><!DOCTYPE svg PUBLIC "-//W3C//DTD SVG 1.1//EN" "http://www.w3.org/Graphics/SVG/1.1/DTD/svg11.dtd"><svg t="1520831314638" class="icon" style="" viewBox="0 0 1024 1024" version="1.1" xmlns="http://www.w3.org/2000/svg" p-id="1200" xmlns:xlink="http://www.w3.org/1999/xlink" width="200" height="200"><defs><style type="text/css">* {  }
</style></defs><path d="M506.181818 337.454545C541.528041 337.454545 570.181818 308.80077 570.181818 273.454545 570.181818 238.108321 541.528041 209.454545 506.181818 209.454545 470.835596 209.454545 442.181818 238.108321 442.181818 273.454545 442.181818 308.80077 470.835596 337.454545 506.181818 337.454545ZM558.545455 768 558.545455 395.636364 465.454545 395.636364 465.454545 768 418.909091 768 418.909091 791.272727 605.090909 791.272727 605.090909 768 558.545455 768 558.545455 768ZM418.909091 395.636364 465.454545 395.636364 465.454545 418.909091 418.909091 418.909091 418.909091 395.636364ZM512 977.454545 512 977.454545C769.063447 977.454545 977.454545 769.063447 977.454545 512 977.454545 254.936553 769.063447 46.545455 512 46.545455 254.936553 46.545455 46.545455 254.936553 46.545455 512 46.545455 769.063447 254.936553 977.454545 512 977.454545L512 977.454545ZM512 1024 512 1024C229.23022 1024 0 794.769792 0 512 0 229.230208 229.23022 0 512 0 794.76978 0 1024 229.230208 1024 512 1024 794.769792 794.76978 1024 512 1024L512 1024Z" p-id="1201" fill="#ffffff"></path></svg>